# Blender v2.76 (sub 0) OBJ File: 'r2.blend'
# www.blender.org
mtllib r2lowpoly.mtl
o r2lowpoly
v -0.048450 0.694121 0.324344
v 0.070597 0.730280 0.721804
v 0.160149 0.703797 0.588338
v -0.431749 0.655508 0.423836
v -0.688024 0.690248 0.008502
v -0.206611 0.572631 0.948169
v -0.514824 0.489764 0.823170
v -0.318227 0.433343 0.998609
v -0.113534 0.612215 1.107359
v 0.371881 0.786909 0.871795
v -0.844231 0.422950 0.209187
v 0.066047 -0.599513 -0.007729
v 0.272160 -0.607501 0.026287
v 0.344040 -0.550887 0.328157
v 0.955583 0.080419 0.833014
v 0.852823 0.285308 0.851121
v 0.820754 0.234320 1.033851
v 0.845460 -0.346979 0.479425
v 0.853997 -0.296196 0.709268
v 0.932664 -0.373601 0.924360
v 0.857669 -0.129602 0.610921
v 0.868533 0.052782 0.326700
v 0.927046 -0.192782 1.014938
v 0.714462 -0.398847 0.123428
v 0.782060 -0.217062 0.039537
v 0.558806 -0.511648 0.236517
v 0.805600 -0.520163 0.627232
v 0.941938 0.277116 -0.111923
v 0.565919 0.582912 -0.355102
v 0.837102 0.537956 -0.088013
v 0.804350 -0.127165 0.129626
v 0.762491 -0.025366 -0.324442
v 0.824879 -0.024137 0.222029
v 0.819489 0.174994 -0.675131
v 0.504733 0.262706 -0.802463
v 0.588350 0.345306 -0.420843
v 0.719248 0.497762 0.886353
v 0.585249 0.650707 0.544728
v 0.590703 0.709819 1.018458
v -0.376607 0.765854 -0.316039
v -0.037678 -0.563605 -0.911992
v -0.124384 -0.412993 -0.925571
v 0.215468 -0.420319 -0.918913
v -0.662600 -0.169510 -0.817394
v -0.586559 0.311016 -0.902131
v -0.317691 0.078873 -0.938826
v -0.635403 -0.459070 -0.860641
v -0.392790 -0.258915 -0.932877
v -0.371589 -0.527144 -1.001230
v -0.728877 0.635611 -0.604280
v -0.903125 0.407775 -0.052284
v -0.826238 0.343066 -0.799636
v -0.705309 -0.629839 -0.665822
v -0.889444 -0.506138 -0.116707
v -0.910749 -0.279559 -0.484787
v -1.042967 0.118635 -0.182924
v -0.903120 -0.019135 -0.615374
v 0.200754 0.672500 -0.496099
v -0.146835 0.742530 -0.540277
v 0.256405 0.587032 -0.857734
v 0.070176 0.647741 -0.803874
v 0.415327 0.038247 -0.918956
v 0.625674 -0.103617 -0.695694
v 0.402818 0.511227 -0.588486
v 0.105358 -0.615824 -0.626587
v 0.469747 -0.506347 -0.242814
v 0.583636 -0.418186 -0.408468
v 0.696616 -0.300480 -0.355052
v 0.841672 0.138670 -0.133988
v 0.922458 0.090733 0.235195
v 0.875385 0.203092 0.546657
v 0.871814 -0.074566 1.306532
v 0.801230 0.343328 0.480378
v -0.293377 0.650891 -0.789431
v -0.447698 0.866233 -0.716587
v 0.650410 -0.331815 1.324602
v 0.653214 -0.006141 1.453068
v 0.409121 -0.562298 0.980136
v 0.115485 -0.465154 1.111444
v 0.527582 -0.216135 1.459159
v 0.237387 -0.259595 1.320390
v 0.056934 -0.627703 0.269114
v 0.158508 -0.544877 0.791959
v -0.129361 -0.672202 0.333172
v -0.139317 -0.296618 1.161099
v -0.277030 -0.448659 0.895555
v 0.113409 -0.041343 1.163507
v -0.162669 0.128665 1.036723
v -0.486683 -0.371301 0.780684
v -0.485281 -0.174741 0.948880
v -0.401621 0.256292 1.013632
v -0.470707 0.054506 0.915292
v 0.634305 0.579219 0.232281
v 0.812920 0.299712 0.119355
v -0.354621 -0.579489 0.658029
v -0.656421 -0.409583 0.350266
v -0.501837 0.358700 0.814206
v -0.632433 0.286571 0.519067
v -0.208700 -0.629948 -0.189904
v -0.369518 -0.651577 0.178625
v -0.557706 -0.634017 -0.364681
v -0.631141 -0.049167 0.669759
v -0.783477 0.154108 0.302788
v -0.926163 -0.079000 -0.088417
v -0.583841 0.664542 -0.866962
v -0.296612 -0.659734 -0.564708
v 0.306050 -0.632434 -0.236626
v -0.823555 -0.430638 0.171605
v -0.988978 -0.150349 -0.173932
v -0.986903 0.318996 -0.030190
v -0.931084 0.336500 -0.333344
v -0.737050 0.413335 0.511896
v 0.483746 0.124932 1.269197
v 0.402766 0.486849 1.212793
v 0.188404 0.231423 1.179418
v 0.654617 0.487119 1.191873
v 0.035793 0.047435 -0.901445
v 0.232889 0.339583 -0.894231
v -0.199192 0.409706 -0.911649
v 0.741823 -0.480617 0.961373
v -0.654995 -0.533341 0.045810
v -0.036219 0.450617 1.208100
v 0.528228 0.238023 1.299888
v 0.298372 0.626921 1.229497
v 0.956697 0.163594 0.321197
v -0.083477 -0.556948 0.872297
v -0.731185 -0.225643 0.379442
v 0.963175 0.288273 0.851760
v 0.851499 0.167367 1.036058
vt 0.461305 0.796581
vt 0.380472 0.817790
vt 0.392498 0.792746
vt 0.242664 0.045299
vt 0.356134 0.000106
vt 0.276208 0.148440
vt 0.360214 0.875157
vt 0.389958 0.943526
vt 0.341574 0.906604
vt 0.335607 0.857554
vt 0.343558 0.790998
vt 0.480442 0.889231
vt 0.226172 0.165705
vt 0.287932 0.421311
vt 0.321910 0.447586
vt 0.304036 0.522680
vt 0.242946 0.737632
vt 0.263193 0.739034
vt 0.255819 0.762206
vt 0.170205 0.711669
vt 0.193766 0.734668
vt 0.197718 0.761030
vt 0.209207 0.712759
vt 0.223645 0.659310
vt 0.217658 0.763486
vt 0.111835 0.658279
vt 0.145925 0.619678
vt 0.082041 0.704549
vt 0.161124 0.747754
vt 0.599572 0.254288
vt 0.479336 0.187556
vt 0.558077 0.179946
vt 0.173413 0.631390
vt 0.166234 0.522893
vt 0.200917 0.642781
vt 0.464742 0.284687
vt 0.428229 0.258207
vt 0.478498 0.231413
vt 0.299113 0.758020
vt 0.350815 0.731477
vt 0.314513 0.783362
vt 0.330307 0.158768
vt 0.339583 0.312331
vt 0.340831 0.296501
vt 0.367101 0.312877
vt 0.308337 0.263882
vt 0.326414 0.233211
vt 0.341099 0.255109
vt 0.305625 0.284153
vt 0.326788 0.276806
vt 0.321561 0.293272
vt 0.313345 0.199791
vt 0.257362 0.186603
vt 0.310167 0.225626
vt 0.290233 0.296178
vt 0.241049 0.287429
vt 0.273968 0.265882
vt 0.252838 0.223508
vt 0.288452 0.246740
vt 0.412811 0.177253
vt 0.364617 0.177989
vt 0.401652 0.220902
vt 0.384476 0.209488
vt 0.405205 0.281900
vt 0.432839 0.316597
vt 0.436714 0.211517
vt 0.341397 0.342310
vt 0.382592 0.411019
vt 0.409573 0.384815
vt 0.516205 0.364819
vt 0.442403 0.389318
vt 0.480462 0.482254
vt 0.428147 0.506444
vt 0.218782 0.558433
vt 0.234841 0.640558
vt 0.047074 0.756828
vt 0.264192 0.698476
vt 0.233876 0.784395
vt 0.273140 0.744746
vt 0.294758 0.692920
vt 0.263298 0.764337
vt 0.350607 0.210531
vt 0.338896 0.195509
vt 0.214182 0.801160
vt 0.239964 0.802369
vt 0.166230 0.811599
vt 0.178732 0.855398
vt 0.227118 0.812280
vt 0.216705 0.840528
vt 0.000106 0.825578
vt 0.124819 0.840128
vt 0.000106 0.878831
vt 0.205935 0.895047
vt 0.150276 0.934464
vt 0.244613 0.861403
vt 0.275425 0.901716
vt 0.149880 0.999894
vt 0.221180 0.989186
vt 0.316239 0.934288
vt 0.280712 0.976578
vt 0.572259 0.067915
vt 0.652528 0.169149
vt 0.080100 0.388031
vt 0.043311 0.310420
vt 0.164272 0.300103
vt 0.021568 0.166885
vt 0.087962 0.092611
vt 0.151231 0.150317
vt 0.363915 0.963961
vt 0.277754 0.366729
vt 0.206955 0.373031
vt 0.273267 0.316781
vt 0.095399 0.217903
vt 0.188829 0.195414
vt 0.235115 0.241774
vt 0.331000 0.211144
vt 0.304055 0.324739
vt 0.345841 0.404860
vt 0.205251 0.285602
vt 0.246543 0.249760
vt 0.249370 0.197116
vt 0.276535 0.209713
vt 0.178487 0.128737
vt 0.107650 0.059918
vt 0.000106 0.238878
vt 0.256990 0.817330
vt 0.293985 0.813436
vt 0.275520 0.845877
vt 0.287201 0.789412
vt 0.369268 0.266337
vt 0.395067 0.244640
vt 0.356391 0.231564
vt 0.186728 0.778684
vt 0.192945 0.444359
vt 0.220114 0.315422
vt 0.310755 0.859230
vt 0.265229 0.808458
vt 0.310174 0.818536
vt 0.371339 0.522680
vt 0.296492 0.613602
vt 0.374427 0.664908
vt 0.586766 0.310928
vt 0.251300 0.656561
vt 0.264110 0.558186
vt 0.133454 0.890934
vt 0.081729 0.956187
vt 0.162398 0.258760
vt 0.243505 0.468207
vn 0.176300 0.980200 -0.090600
vn -0.628000 0.737300 0.248900
vn 0.428800 0.652400 -0.624900
vn -0.571800 0.573300 0.586800
vn -0.597100 0.593000 0.540200
vn -0.568100 0.576800 0.587100
vn -0.567100 0.586300 0.578500
vn -0.573600 0.566800 0.591300
vn -0.578600 0.557600 0.595300
vn 0.285000 0.931100 0.227700
vn -0.572900 0.581900 0.577300
vn 0.392500 -0.913300 0.109000
vn 0.455500 -0.728300 0.511900
vn 0.680700 -0.724800 0.106500
vn 0.852600 0.517200 0.074500
vn 0.489700 0.848000 0.202800
vn 0.562600 0.501300 0.657400
vn 0.581600 -0.595400 -0.554400
vn 0.621000 0.544600 -0.563800
vn 0.570400 -0.577000 0.584600
vn 0.593800 -0.582400 -0.555200
vn 0.684400 -0.589200 -0.429600
vn 0.576700 -0.575500 0.579900
vn 0.576900 -0.572700 -0.582400
vn 0.570900 -0.583500 -0.577600
vn 0.608400 -0.655900 -0.446800
vn 0.638000 -0.662800 -0.392000
vn 0.773800 0.376500 -0.509400
vn 0.569400 0.587900 -0.574700
vn 0.680700 0.689500 -0.247500
vn 0.714000 -0.404300 -0.571600
vn 0.589100 -0.589500 -0.552700
vn 0.633900 -0.615300 -0.468600
vn 0.611900 0.479600 -0.628900
vn 0.577900 0.554900 -0.598500
vn 0.589900 0.567900 -0.574000
vn 0.699500 0.711700 0.064400
vn 0.548100 0.655000 -0.520200
vn 0.591400 0.557300 0.582700
vn -0.360600 0.766800 0.531000
vn 0.574800 -0.564900 -0.592000
vn 0.483400 0.229600 -0.844800
vn 0.561000 -0.574000 -0.596600
vn -0.736900 0.140400 -0.661300
vn -0.716900 0.038300 -0.696200
vn -0.471800 0.061400 -0.879600
vn -0.589500 -0.581900 -0.560200
vn -0.602900 0.484400 -0.633900
vn -0.335600 -0.678900 -0.653000
vn -0.623900 0.613300 -0.484400
vn -0.684700 0.691200 0.231100
vn -0.630100 0.500500 -0.593700
vn -0.578500 -0.558000 -0.594900
vn -0.642900 -0.617400 0.453400
vn -0.574600 -0.574400 -0.583000
vn -0.880100 0.049500 0.472200
vn -0.676100 -0.332800 -0.657400
vn 0.603900 0.636700 -0.479500
vn 0.712800 0.685400 0.148500
vn 0.559700 0.589300 -0.582700
vn 0.456800 0.638200 -0.619700
vn 0.695100 -0.003800 -0.718900
vn 0.562500 -0.567800 -0.600900
vn 0.558300 0.595100 -0.578100
vn 0.583300 -0.557100 -0.591100
vn 0.561600 -0.586800 -0.583400
vn 0.560500 -0.587900 -0.583300
vn 0.561800 -0.587800 -0.582200
vn 0.730800 -0.676100 -0.094000
vn 0.672800 -0.617700 -0.407200
vn 0.889800 0.456300 0.011800
vn 0.691300 -0.258500 0.674800
vn 0.516100 0.743600 0.425200
vn 0.726800 0.660800 -0.187200
vn 0.702200 0.273700 0.657300
vn 0.336600 0.694600 -0.635900
vn -0.334800 0.676800 -0.655700
vn 0.582100 -0.579800 0.570100
vn 0.386000 0.571000 0.724500
vn 0.130300 -0.714100 0.687800
vn -0.571600 -0.590400 0.569800
vn -0.236500 -0.684100 0.690000
vn -0.596600 -0.561000 0.573900
vn 0.720700 -0.691500 0.048500
vn 0.116200 -0.753700 0.646900
vn 0.163700 -0.919500 0.357500
vn -0.563800 -0.576500 0.591400
vn -0.555400 -0.588100 0.588000
vn -0.571800 0.578500 0.581800
vn -0.652500 -0.329800 0.682200
vn -0.577100 -0.572100 0.582900
vn -0.584200 -0.552700 0.594400
vn -0.659100 0.275200 0.699900
vn -0.640400 0.443700 0.627000
vn 0.633700 0.720900 0.280800
vn 0.632100 0.564000 0.531400
vn -0.555000 -0.579700 0.596600
vn -0.587400 -0.565300 0.579100
vn -0.701700 -0.119700 0.702300
vn -0.592800 -0.547500 0.590600
vn 0.121800 -0.992300 0.023400
vn -0.645100 -0.676200 0.355900
vn -0.651500 -0.642500 0.403400
vn -0.699200 -0.149300 0.699100
vn -0.691100 -0.068100 0.719600
vn -0.690500 -0.244800 0.680600
vn -0.592600 0.593000 -0.545200
vn -0.015700 -0.910400 -0.413500
vn 0.641600 -0.665500 -0.381400
vn -0.591700 -0.562400 0.577500
vn -0.618500 -0.505300 0.601800
vn -0.576700 0.586100 0.569200
vn -0.596500 0.632200 -0.494500
vn -0.651300 0.403600 0.642600
vn -0.576400 0.577200 0.578500
vn -0.172600 0.254500 0.951500
vn -0.690600 -0.220700 0.688700
vn 0.583500 0.568500 0.579900
vn 0.091200 0.218100 -0.971700
vn 0.537400 0.568600 -0.622900
vn 0.078600 0.712800 -0.697000
vn 0.575700 -0.575700 0.580700
vn -0.602800 -0.553700 0.574400
vn -0.687300 0.176000 0.704700
vn -0.586100 0.572600 0.573300
vn -0.023000 0.693100 0.720500
vn 0.868200 0.445600 0.218300
vn -0.508400 -0.625000 0.592400
vn -0.584600 -0.573700 0.573600
usemtl Material.003
s 1
f 1/1/1 2/2/2 3/3/3
f 4/4/4 1/5/1 5/6/5
f 6/7/6 7/8/7 8/9/8
f 9/10/9 10/11/10 6/7/6
f 6/7/6 10/11/10 2/2/2
f 4/12/4 6/7/6 2/2/2
f 2/2/2 1/1/1 4/12/4
f 4/4/4 5/6/5 11/13/11
f 12/14/12 13/15/13 14/16/14
f 15/17/15 128/18/16 129/19/17
f 18/20/18 19/21/19 20/22/20
f 21/23/21 22/24/22 23/25/23
f 24/26/24 25/27/25 18/20/18
f 26/28/26 24/26/24 27/29/27
f 28/30/28 29/31/29 30/32/30
f 31/33/31 32/34/32 33/35/33
f 4/12/4 7/8/7 6/7/6
f 34/36/34 35/37/35 36/38/36
f 37/39/37 38/40/38 39/41/39
f 1/5/1 40/42/40 5/6/5
f 41/43/41 42/44/42 43/45/43
f 44/46/44 45/47/45 46/48/46
f 47/49/47 48/50/48 49/51/49
f 50/52/50 51/53/51 5/6/5
f 44/46/44 52/54/52 45/47/45
f 53/55/53 54/56/54 55/57/55
f 55/57/55 56/58/56 57/59/57
f 53/55/53 55/57/55 47/49/47
f 58/60/58 59/61/59 1/5/1
f 60/62/60 61/63/61 58/60/58
f 47/49/47 44/46/44 48/50/48
f 41/43/41 53/55/53 49/51/49
f 49/51/49 42/44/42 41/43/41
f 43/45/43 62/64/62 63/65/63
f 35/37/35 60/62/60 64/66/64
f 65/67/65 41/43/41 66/68/66
f 63/65/63 62/64/62 34/36/34
f 43/45/43 63/65/63 67/69/67
f 66/68/66 43/45/43 67/69/67
f 36/38/36 64/66/64 29/31/29
f 63/65/63 34/36/34 32/70/32
f 32/70/32 34/36/34 28/30/28
f 25/27/25 32/34/32 31/33/31
f 67/69/67 68/71/68 25/72/25
f 66/68/66 67/69/67 24/73/24
f 34/36/34 36/38/36 28/30/28
f 22/24/22 69/74/69 70/75/70
f 18/20/18 31/33/31 19/21/19
f 27/29/27 18/20/18 20/22/20
f 14/76/14 26/28/26 27/29/27
f 15/17/15 71/77/71 128/18/16
f 20/22/20 19/21/19 23/25/23
f 23/25/23 15/17/15 72/78/72
f 16/79/73 73/80/74 37/39/37
f 17/81/75 16/79/73 37/39/37
f 61/63/61 74/82/76 75/83/77
f 61/63/61 75/83/77 59/61/59
f 76/84/78 72/78/72 77/85/79
f 78/86/80 76/84/78 79/87/81
f 38/40/38 1/1/1 3/3/3
f 76/84/78 80/88/82 81/89/83
f 82/90/84 83/91/85 84/92/86
f 79/87/81 85/93/87 86/94/88
f 85/93/87 87/95/89 88/96/90
f 89/97/91 85/93/87 90/98/92
f 90/98/92 91/99/93 92/100/94
f 93/101/95 94/102/96 30/32/30
f 95/103/97 89/104/91 96/105/98
f 92/106/94 97/107/99 98/108/100
f 92/100/94 91/99/93 97/109/99
f 64/66/64 58/60/58 29/31/29
f 61/63/61 59/61/59 58/60/58
f 99/110/101 100/111/102 101/112/103
f 102/113/104 98/108/100 103/114/105
f 104/115/106 103/114/105 56/58/56
f 74/82/76 105/116/107 75/83/77
f 105/116/107 50/52/50 75/83/77
f 106/117/108 65/67/65 107/118/109
f 50/52/50 5/6/5 40/42/40
f 54/56/54 108/119/110 109/120/111
f 59/61/59 40/42/40 1/5/1
f 56/58/56 11/13/11 110/121/112
f 2/2/2 10/11/10 3/3/3
f 56/58/56 110/121/112 111/122/113
f 106/117/108 107/118/109 12/14/12
f 103/114/105 11/13/11 56/58/56
f 50/52/50 40/42/40 75/83/77
f 112/123/114 4/4/4 11/13/11
f 112/123/114 7/124/7 4/4/4
f 5/6/5 51/53/51 11/13/11
f 89/104/91 90/125/92 102/113/104
f 86/94/88 85/93/87 89/97/91
f 85/93/87 88/96/90 90/98/92
f 8/9/8 9/10/9 6/7/6
f 113/126/115 114/127/116 115/128/117
f 80/88/82 77/85/79 113/126/115
f 17/81/75 37/39/37 116/129/118
f 38/40/38 37/39/37 73/80/74
f 19/21/19 21/23/21 23/25/23
f 21/23/21 33/35/33 22/24/22
f 67/69/67 63/65/63 68/71/68
f 41/43/41 43/45/43 66/68/66
f 117/130/119 118/131/120 62/64/62
f 46/48/46 45/47/45 119/132/121
f 106/117/108 53/55/53 41/43/41
f 52/54/52 105/116/107 45/47/45
f 47/49/47 57/59/57 44/46/44
f 111/122/113 50/52/50 52/54/52
f 101/112/103 54/56/54 53/55/53
f 54/56/54 109/120/111 55/57/55
f 47/49/47 55/57/55 57/59/57
f 118/131/120 61/63/61 60/62/60
f 25/72/25 68/71/68 32/70/32
f 78/86/80 27/29/27 120/133/122
f 10/11/10 38/40/38 3/3/3
f 99/110/101 84/134/86 100/111/102
f 121/135/123 96/105/98 108/119/110
f 97/107/99 7/124/7 112/123/114
f 97/109/99 8/9/8 7/8/7
f 121/135/123 100/111/102 96/105/98
f 91/99/93 88/96/90 122/136/124
f 88/96/90 115/128/117 122/136/124
f 85/93/87 79/87/81 81/89/83
f 113/126/115 77/85/79 123/137/125
f 123/137/125 77/85/79 116/129/118
f 114/127/116 116/129/118 124/138/126
f 124/138/126 116/129/118 39/41/39
f 93/101/95 58/60/58 1/5/1
f 83/91/85 14/76/14 78/86/80
f 76/84/78 23/25/23 72/78/72
f 13/15/13 107/118/109 26/139/26
f 33/35/33 32/34/32 22/24/22
f 68/71/68 63/65/63 32/70/32
f 35/37/35 118/131/120 60/62/60
f 117/130/119 46/48/46 118/131/120
f 49/51/49 53/55/53 47/49/47
f 94/140/96 73/80/74 71/77/71
f 111/122/113 51/53/51 50/52/50
f 55/57/55 109/120/111 56/58/56
f 52/54/52 56/58/56 111/122/113
f 57/59/57 56/58/56 52/54/52
f 105/116/107 52/54/52 50/52/50
f 44/46/44 57/59/57 52/54/52
f 48/50/48 44/46/44 46/48/46
f 119/132/121 45/47/45 105/116/107
f 119/132/121 74/82/76 61/63/61
f 119/132/121 105/116/107 74/82/76
f 42/44/42 48/50/48 46/48/46
f 65/67/65 106/117/108 41/43/41
f 42/44/42 46/48/46 117/130/119
f 43/45/43 42/44/42 62/64/62
f 118/131/120 119/132/121 61/63/61
f 62/64/62 42/44/42 117/130/119
f 62/64/62 118/131/120 35/37/35
f 38/40/38 93/141/95 1/1/1
f 64/66/64 60/62/60 58/60/58
f 34/36/34 62/64/62 35/37/35
f 36/38/36 35/37/35 64/66/64
f 107/118/109 65/67/65 66/68/66
f 69/142/69 32/70/32 28/30/28
f 24/73/24 67/69/67 25/72/25
f 107/118/109 66/68/66 24/73/24
f 28/30/28 36/38/36 29/31/29
f 26/139/26 107/118/109 24/73/24
f 21/23/21 31/33/31 33/35/33
f 18/20/18 25/27/25 31/33/31
f 23/25/23 22/24/22 15/17/15
f 125/143/127 28/144/28 94/140/96
f 71/77/71 125/143/127 94/140/96
f 15/17/15 22/24/22 125/143/127
f 22/24/22 70/75/70 125/143/127
f 14/16/14 13/15/13 26/139/26
f 93/141/95 38/40/38 73/80/74
f 120/133/122 27/29/27 20/22/20
f 120/133/122 23/25/23 76/84/78
f 120/133/122 20/22/20 23/25/23
f 72/78/72 129/19/17 116/129/118
f 82/90/84 14/76/14 83/91/85
f 77/85/79 72/78/72 116/129/118
f 80/88/82 76/84/78 77/85/79
f 116/129/118 37/39/37 39/41/39
f 83/91/85 78/86/80 79/87/81
f 123/137/125 116/129/118 114/127/116
f 113/126/115 123/137/125 114/127/116
f 81/89/83 80/88/82 113/126/115
f 124/138/126 39/41/39 10/11/10
f 126/145/128 83/91/85 79/87/81
f 99/110/101 12/14/12 84/134/86
f 84/92/86 83/91/85 126/145/128
f 124/138/126 115/128/117 114/127/116
f 122/136/124 115/128/117 124/138/126
f 29/31/29 58/60/58 93/101/95
f 87/95/89 115/128/117 88/96/90
f 85/93/87 81/89/83 87/95/89
f 30/32/30 29/31/29 93/101/95
f 84/92/86 126/145/128 95/146/97
f 8/9/8 122/136/124 9/10/9
f 59/61/59 75/83/77 40/42/40
f 96/105/98 89/104/91 102/113/104
f 97/109/99 91/99/93 8/9/8
f 91/99/93 122/136/124 8/9/8
f 96/105/98 102/113/104 127/147/129
f 127/147/129 102/113/104 103/114/105
f 110/121/112 11/13/11 51/53/51
f 127/147/129 103/114/105 104/115/106
f 54/56/54 121/135/123 108/119/110
f 54/56/54 101/112/103 121/135/123
f 94/140/96 93/141/95 73/80/74
f 39/41/39 38/40/38 10/11/10
f 102/113/104 92/106/94 98/108/100
f 98/108/100 97/107/99 112/123/114
f 95/146/97 86/94/88 89/97/91
f 95/146/97 126/145/128 86/94/88
f 81/89/83 113/126/115 87/95/89
f 87/95/89 113/126/115 115/128/117
f 79/87/81 76/84/78 81/89/83
f 72/78/72 15/17/15 129/19/17
f 78/86/80 14/76/14 27/29/27
f 128/18/16 71/77/71 73/80/74
f 15/17/15 125/143/127 71/77/71
f 19/21/19 31/33/31 21/23/21
f 125/143/127 70/75/70 28/144/28
f 70/75/70 69/74/69 28/144/28
f 22/24/22 32/34/32 69/74/69
f 118/131/120 46/48/46 119/132/121
f 42/44/42 49/51/49 48/50/48
f 106/117/108 101/112/103 53/55/53
f 78/86/80 120/133/122 76/84/78
f 100/111/102 95/103/97 96/105/98
f 90/125/92 92/106/94 102/113/104
f 84/134/86 95/103/97 100/111/102
f 12/14/12 14/16/14 82/148/84
f 122/136/124 124/138/126 9/10/9
f 124/138/126 10/11/10 9/10/9
f 126/145/128 79/87/81 86/94/88
f 101/112/103 100/111/102 121/135/123
f 106/117/108 99/110/101 101/112/103
f 98/108/100 112/123/114 11/13/11
f 103/114/105 98/108/100 11/13/11
f 108/119/110 127/147/129 104/115/106
f 96/105/98 127/147/129 108/119/110
f 12/14/12 82/148/84 84/134/86
f 107/118/109 13/15/13 12/14/12
f 106/117/108 12/14/12 99/110/101
f 110/121/112 51/53/51 111/122/113
f 104/115/106 56/58/56 109/120/111
f 108/119/110 104/115/106 109/120/111
f 90/98/92 88/96/90 91/99/93
f 28/30/28 30/32/30 94/102/96
f 24/26/24 18/20/18 27/29/27
f 129/19/17 16/79/73 17/81/75
f 16/79/73 128/18/16 73/80/74
f 129/19/17 128/18/16 16/79/73
f 17/81/75 116/129/118 129/19/17
