# Blender v2.76 (sub 0) OBJ File: 'r3.blend'
# www.blender.org
mtllib nhlpr3.mtl
o r3lowpoly_Cube.001
v -1.074626 1.152730 -0.064002
v -0.289788 0.573600 -0.811830
v 0.519384 0.552748 -0.964383
v -1.453102 0.901289 1.217143
v -0.880547 -0.870415 0.130067
v -1.009111 -0.714340 -0.149066
v 0.689915 -0.912568 0.224333
v -0.539618 1.142317 0.133287
v -0.618429 1.325141 -0.471542
v 0.950157 0.221077 -0.528053
v 0.892708 0.838336 -0.650921
v 0.920063 -0.146174 -0.476229
v 0.585091 0.514067 0.717360
v 0.669561 -0.455106 0.999878
v -1.235504 -0.353851 1.126724
v -1.931622 0.308274 1.479939
v -1.952072 0.494402 1.442162
v -1.704062 -0.416744 0.771334
v 0.173172 -0.430455 -0.990351
v 0.155920 0.520567 -0.860909
v -0.898220 0.900457 -0.278670
v -0.545080 -0.360840 -0.959595
v -1.864578 0.479749 0.342243
v -1.383195 1.108436 0.138618
v -1.648249 0.434551 1.548343
v -0.536970 0.840771 0.987793
v 0.762193 0.787212 0.013559
v -0.713517 -0.984695 0.353068
v -1.447907 1.020201 0.997360
v -1.375723 1.068257 0.590130
v 0.970408 0.577584 0.060730
v 0.926103 0.276519 0.280961
v 0.174229 0.717489 0.767526
v -0.558741 0.445941 1.236688
v -1.651102 -0.003779 1.486430
v -1.173251 0.236468 1.476050
v -1.437600 0.522908 1.507278
v -2.049102 0.245449 0.975956
v -1.535995 0.688502 0.184779
v -0.898811 0.510445 -0.372334
v -0.715825 -0.082754 -0.853365
v -0.293303 0.175313 -0.838855
v -0.179096 0.844986 -0.742486
v 0.748345 -0.198478 -0.901630
v -1.549221 -0.486549 0.333506
v -0.840159 -0.594461 -0.578752
v -1.175308 -0.463619 -0.360882
v -1.948344 -0.040825 1.298307
v -1.309525 -0.636244 0.681886
v -1.696335 0.663119 1.477142
v -0.592824 -0.099928 1.203920
v -0.887238 -0.673958 0.968079
v 0.815077 -0.680180 0.736215
v 0.563058 -0.745866 0.855865
v 0.011702 -0.879220 0.853123
v 0.462609 0.399092 0.949343
v 0.939690 0.129578 0.658605
v -0.036899 0.145310 1.042133
v 0.933547 -0.312300 0.129310
v 0.923476 -0.728165 0.236002
v 0.636025 -0.688591 -0.680230
v 0.773047 -0.781708 -0.148062
v 0.718303 0.282986 -0.914092
v 0.886208 0.189818 -0.088668
v 0.630165 0.709884 0.404675
v 0.301609 0.967558 -0.837766
v 0.617479 0.966107 -0.556371
v -0.098269 1.033012 -0.710308
v -0.160904 -0.796991 -0.767146
v -0.260818 -0.902154 -0.645171
v -0.784216 -0.783747 -0.411081
v -0.574025 -0.895861 -0.567332
v 0.412836 -0.828226 -0.541603
v 0.271133 -0.749155 -0.802291
v 0.095079 -0.938201 0.055227
v 0.504289 -0.973569 -0.079673
v 0.358258 -0.993035 0.710530
v -1.240299 1.177155 0.343208
v 0.444838 0.925357 -0.191202
v -0.025690 0.952877 0.377524
v 1.001650 0.721577 -0.360740
v 0.973638 -0.466411 -0.504353
v 0.958527 -0.358587 0.780364
v 0.257975 -0.320364 0.986772
v -1.971095 -0.078691 1.055161
v -0.876324 -0.373977 -0.637320
v -1.566291 0.209406 0.214473
v -1.024497 -0.009636 -0.465220
v -0.403814 0.526036 -0.726883
v -0.516121 -0.616995 -0.759106
v -1.032792 0.738880 1.226685
v 0.827867 0.438593 0.569662
v -0.771494 -0.950688 0.673282
v -0.418228 -0.885887 0.973788
v -1.962486 0.714842 1.288019
v -0.832964 -0.444431 1.159796
v -0.208369 -0.416539 1.043557
v 0.367762 -0.948468 -0.316108
v 0.387021 0.805908 0.194679
v 0.963567 -0.632368 0.079882
v 0.775245 -0.446154 -0.762429
v 0.607845 0.056942 0.979731
v -1.232193 -0.694036 0.337040
v -1.785684 -0.003726 1.430932
v -1.784026 -0.027464 0.473104
v -1.455735 -0.063493 0.076428
v 0.574640 0.031729 -0.974342
v -0.613879 1.094418 -0.682075
v -0.213284 -0.461887 -1.015303
v -1.617607 0.842243 0.329214
v -0.176312 0.995632 0.308221
v -0.475366 1.014662 0.677729
v -1.738926 0.938021 1.161097
v -0.094246 -0.990269 0.693223
v -0.948418 0.958414 0.818258
v -0.423984 0.850293 -0.788340
v -1.994168 0.589673 0.757071
v -0.059893 0.543545 1.050496
v 0.961689 -0.205551 0.486392
v 0.916442 0.849238 -0.391995
v -0.780562 1.324946 -0.130318
v -0.631591 -0.959867 -0.275335
v 0.424037 -0.125795 -0.942142
vt 0.752577 0.118374
vt 0.866089 0.000102
vt 0.794080 0.087068
vt 0.258467 0.184992
vt 0.301048 0.102208
vt 0.315639 0.129492
vt 0.229710 0.337871
vt 0.230358 0.302765
vt 0.263765 0.332881
vt 0.668433 0.213785
vt 0.667913 0.301447
vt 0.628023 0.253965
vt 0.685191 0.255934
vt 0.758092 0.217904
vt 0.720038 0.232758
vt 0.729300 0.191815
vt 0.312588 0.037409
vt 0.380396 0.083624
vt 0.729211 0.000102
vt 0.662102 0.096560
vt 0.631649 0.030914
vt 0.178750 0.343325
vt 0.240372 0.363425
vt 0.756980 0.165786
vt 0.688853 0.203759
vt 0.433059 0.142703
vt 0.369206 0.167334
vt 0.463097 0.323363
vt 0.423677 0.257435
vt 0.329682 0.205048
vt 0.431899 0.330994
vt 0.363000 0.310765
vt 0.310181 0.267604
vt 0.320894 0.311275
vt 0.301074 0.291247
vt 0.332759 0.354554
vt 0.595451 0.313344
vt 0.512223 0.363382
vt 0.577469 0.269547
vt 0.118915 0.266452
vt 0.147016 0.245761
vt 0.150935 0.274542
vt 0.265288 0.295304
vt 0.924276 0.032266
vt 0.881286 0.469561
vt 0.806676 0.474396
vt 0.838573 0.420369
vt 0.292972 0.183535
vt 0.266402 0.212838
vt 0.186165 0.138104
vt 0.231745 0.173794
vt 0.373075 0.400161
vt 0.231254 0.500160
vt 0.272362 0.388694
vt 0.059536 0.448619
vt 0.119968 0.365616
vt 0.141158 0.432394
vt 0.701588 0.185432
vt 0.676494 0.181234
vt 0.678265 0.166076
vt 0.734694 0.106729
vt 0.873833 0.167900
vt 0.865683 0.261383
vt 0.946426 0.419003
vt 0.874274 0.377783
vt 0.993237 0.354209
vt 0.156814 0.367474
vt 0.165745 0.313171
vt 0.665996 0.156087
vt 0.634103 0.139751
vt 0.679880 0.144505
vt 0.663220 0.177832
vt 0.655039 0.186658
vt 0.736690 0.153546
vt 0.891247 0.334090
vt 0.999898 0.144202
vt 0.851326 0.105956
vt 0.986077 0.070494
vt 0.320226 0.247585
vt 0.951497 0.286963
vt 0.680125 0.219788
vt 0.650368 0.208892
vt 0.658271 0.210044
vt 0.069022 0.272686
vt 0.117610 0.318415
vt 0.175949 0.282669
vt 0.248661 0.243489
vt 0.253950 0.268249
vt 0.201631 0.242255
vt 0.711681 0.125601
vt 0.792603 0.023350
vt 0.780958 0.376738
vt 0.205442 0.186287
vt 0.250529 0.001804
vt 0.397624 0.375669
vt 0.447704 0.462211
vt 0.270271 0.342213
vt 0.294752 0.357168
vt 0.285664 0.334075
vt 0.214347 0.476097
vt 0.225570 0.405586
vt 0.216793 0.217696
vt 0.289280 0.253192
vt 0.271665 0.236848
vt 0.187424 0.236738
vt 0.181440 0.212577
vt 0.202842 0.267580
vt 0.124551 0.232259
vt 0.000102 0.234156
vt 0.002114 0.142410
vt 0.665990 0.196207
vt 0.669474 0.189117
vt 0.663904 0.437699
vt 0.611850 0.393344
vt 0.818330 0.325522
vt 0.704892 0.332666
vt 0.718570 0.285215
vt 0.442757 0.394844
vt 0.646318 0.176592
vt 0.621764 0.188328
vt 0.563442 0.133287
vt 0.463302 0.143111
vt 0.545310 0.212000
vt 0.202208 0.319230
vt 0.602480 0.079408
vt 0.166876 0.570027
vt 0.085807 0.578090
vt 0.090691 0.000102
vt 0.088204 0.147560
vt 0.199490 0.375765
vt 0.506206 0.080162
vt 0.014432 0.362423
vt 0.126697 0.196343
vt 0.076535 0.180585
vt 0.722285 0.406116
vt 0.409393 0.515077
vt 0.371844 0.578089
vt 0.464855 0.262600
vt 0.015131 0.027862
vt 0.290053 0.559458
vt 0.771759 0.253347
vn -0.715100 0.526200 -0.460000
vn -0.029500 0.950500 -0.309200
vn -0.580100 -0.267600 -0.769300
vn 0.286400 -0.881300 -0.375700
vn -0.065300 -0.864900 -0.497700
vn -0.068200 -0.708900 -0.702000
vn 0.932000 0.290900 0.216100
vn 0.998000 -0.061900 0.007000
vn 0.968000 0.251000 -0.004100
vn -0.719200 -0.524600 0.455400
vn -0.442200 -0.854100 0.273800
vn -0.257800 -0.782900 0.566200
vn -0.655000 -0.750700 0.086300
vn -0.662200 -0.029800 -0.748700
vn -0.848600 -0.249000 -0.466800
vn -0.774000 0.085200 -0.627300
vn -0.403600 -0.730200 -0.551200
vn -0.378700 -0.570100 -0.729100
vn 0.305200 0.926900 0.218200
vn 0.104700 0.914900 0.389900
vn 0.207800 0.903000 0.376000
vn 0.734300 0.491600 0.468100
vn 0.429100 0.846000 0.316400
vn -0.584200 0.184700 -0.790300
vn -0.993000 -0.094800 -0.070500
vn -0.370100 -0.171100 -0.913100
vn -0.100700 -0.221000 -0.970100
vn -0.568600 0.085700 -0.818100
vn -0.123500 0.192400 -0.973500
vn 0.116500 -0.164100 -0.979500
vn -0.276600 0.067400 -0.958600
vn -0.191600 0.109800 -0.975300
vn 0.079100 -0.048500 -0.995700
vn 0.117500 0.193500 -0.974000
vn 0.613300 0.063500 -0.787300
vn 0.026400 0.689000 -0.724200
vn -0.339000 -0.682200 0.647800
vn -0.019300 -0.687900 0.725500
vn 0.009300 -0.461000 0.887300
vn 0.355500 -0.193700 0.914300
vn 0.671600 -0.591700 0.445800
vn 0.878400 -0.099200 0.467500
vn 0.976100 -0.062100 -0.208100
vn -0.461300 0.284200 -0.840500
vn -0.289700 -0.941000 -0.174500
vn -0.591800 -0.673800 -0.442400
vn 0.184400 -0.728600 -0.659600
vn 0.459100 -0.698700 -0.548700
vn -0.028000 -0.998300 -0.051300
vn 0.179900 -0.952100 -0.247200
vn 0.075000 0.773200 -0.629600
vn 0.249200 0.961300 0.117100
vn 0.205300 0.959300 0.193900
vn 0.313400 0.380000 0.870200
vn 0.396500 0.421200 0.815600
vn 0.342600 0.792700 0.504300
vn -0.906800 0.366600 -0.208100
vn -0.775600 0.527000 0.347300
vn -0.413000 0.867500 0.277100
vn -0.180800 0.947600 0.263400
vn -0.646700 0.253600 -0.719400
vn -0.742300 0.166900 -0.648900
vn -0.545400 -0.524200 -0.654000
vn 0.519900 0.633500 0.573000
vn 0.884100 0.255600 0.391100
vn 0.156100 0.778000 0.608500
vn 0.229100 0.689200 0.687300
vn 0.037600 0.958000 0.284100
vn -0.077500 0.506900 0.858500
vn -0.029500 0.126200 0.991500
vn -0.705500 0.562800 -0.430600
vn -0.691600 -0.152700 -0.705900
vn -0.713400 0.039000 -0.699600
vn -0.275400 0.133800 -0.951900
vn -0.015000 0.028000 -0.999500
vn -0.531400 0.165400 -0.830800
vn -0.890500 -0.454700 -0.015100
vn -0.122100 -0.492600 0.861600
vn -0.362900 -0.582600 0.727200
vn 0.042900 -0.027300 0.998700
vn 0.386300 0.158500 0.908600
vn 0.999500 0.010700 -0.030000
vn 0.923400 -0.260100 -0.282300
vn 0.987800 0.046900 -0.148700
vn 0.970300 -0.240600 0.024500
vn 0.466400 0.752300 0.465300
vn 0.024000 0.996700 0.077100
vn -0.590200 -0.756800 -0.281000
vn 0.250900 -0.955500 -0.155100
vn -0.010400 0.241500 -0.970300
vn 0.599700 0.793500 0.103900
vn 0.241500 0.969300 -0.045600
vn 0.695700 0.540400 -0.473100
vn 0.311000 0.915300 0.255900
vn 0.305000 0.908100 0.286800
vn 0.602400 -0.764600 -0.228900
vn 0.587500 -0.155400 -0.794200
vn 0.554400 -0.426300 -0.714700
vn 0.852700 -0.520000 0.050400
vn 0.495000 -0.868300 0.031500
vn 0.998700 0.045500 -0.022500
vn 0.329900 -0.598600 0.729900
vn 0.194200 -0.169000 0.966300
vn -0.668400 -0.085800 0.738800
vn -0.737000 0.195600 0.647000
vn -0.246300 -0.969000 -0.018200
vn -0.322400 -0.908700 0.265100
vn -0.743000 -0.323300 -0.586000
vn -0.516500 -0.851700 -0.088000
vn -0.741600 -0.607500 -0.284300
vn -0.049200 0.639300 0.767300
vn 0.243800 -0.081600 0.966400
vn 0.330900 0.116100 0.936500
vn 0.227800 -0.027000 0.973300
vn 0.282300 -0.205400 0.937000
vn 0.997300 0.053600 0.050800
vn 0.218200 0.754300 0.619200
vn 0.022600 -0.975200 0.220000
vn 0.421000 0.832500 0.360200
vn 0.200300 -0.896500 0.395100
vn 0.120500 -0.786800 0.605300
vn -0.511200 -0.848800 -0.134800
vn -0.770600 0.084200 -0.631800
usemtl Material.001
s 1
f 24/1/1 9/2/2 1/3/3
f 73/4/4 70/5/5 69/6/6
f 31/7/7 64/8/8 81/9/9
f 48/10/10 49/11/11 15/12/12
f 48/10/10 18/13/13 49/11/11
f 87/14/14 105/15/15 23/16/16
f 70/5/5 72/17/17 90/18/18
f 8/19/19 115/20/20 112/21/21
f 92/22/22 31/7/7 27/23/23
f 87/14/14 23/16/16 39/24/24
f 38/25/25 23/16/16 105/15/15
f 90/18/18 22/26/26 109/27/27
f 22/26/26 89/28/28 42/29/29
f 19/30/30 109/27/27 42/29/29
f 42/29/29 2/31/31 20/32/32
f 107/33/33 3/34/34 63/35/35
f 66/36/36 3/34/34 20/32/32
f 52/37/37 94/38/38 96/39/39
f 14/40/40 53/41/41 83/42/42
f 81/9/9 64/8/8 10/43/43
f 9/2/2 108/44/44 1/3/3
f 72/45/17 122/46/45 71/47/46
f 73/4/4 74/48/47 61/49/48
f 75/50/49 70/5/5 98/51/50
f 68/52/51 111/53/52 79/54/53
f 118/55/54 56/56/55 33/57/56
f 117/58/57 95/59/58 113/60/59
f 117/58/57 113/60/59 78/61/60
f 40/62/61 88/63/62 87/14/14
f 90/64/18 46/65/63 22/66/26
f 92/22/22 13/67/64 57/68/65
f 4/69/66 91/70/67 29/71/68
f 29/71/68 113/60/59 4/69/66
f 91/70/67 115/20/20 29/71/68
f 91/70/67 50/72/69 25/73/70
f 1/3/3 110/74/71 24/1/1
f 86/75/72 22/66/26 46/65/63
f 89/76/28 21/77/73 116/78/74
f 21/77/73 89/76/28 40/62/61
f 123/79/75 20/32/32 107/33/33
f 86/75/72 88/63/62 41/80/76
f 48/10/10 85/81/77 18/13/13
f 15/12/12 35/82/78 104/83/79
f 84/84/80 14/40/40 102/85/81
f 57/68/65 83/42/42 119/86/82
f 82/87/83 12/88/84 100/89/85
f 30/90/86 121/91/87 78/61/60
f 71/47/46 122/46/45 6/92/88
f 98/51/50 73/4/4 76/93/89
f 122/94/45 70/5/5 75/50/49
f 43/95/90 108/96/44 68/52/51
f 110/74/71 78/61/60 24/1/1
f 27/23/23 120/97/91 67/98/92
f 120/97/91 11/99/93 67/98/92
f 111/53/52 80/100/94 79/54/53
f 27/23/23 79/54/53 99/101/95
f 82/87/83 62/102/96 61/49/48
f 44/103/97 10/43/43 12/88/84
f 82/87/83 101/104/98 44/103/97
f 12/88/84 82/87/83 44/103/97
f 62/102/96 60/105/99 7/106/100
f 119/86/82 60/105/99 59/107/101
f 13/67/64 56/56/55 57/68/65
f 14/40/40 54/108/102 53/41/41
f 102/85/81 14/40/40 83/42/42
f 84/84/80 97/109/103 94/110/38
f 38/25/25 48/10/10 16/111/104
f 17/112/105 16/111/104 25/73/70
f 50/72/69 17/112/105 25/73/70
f 35/82/78 16/111/104 104/83/79
f 95/59/58 50/72/69 113/60/59
f 49/11/11 28/113/106 93/114/107
f 104/83/79 48/10/10 15/12/12
f 71/47/46 47/115/108 46/65/63
f 103/116/109 45/117/110 6/92/88
f 85/81/77 105/15/15 45/117/110
f 66/36/36 20/32/32 68/52/51
f 63/35/35 3/34/34 11/99/93
f 116/118/74 108/96/44 43/95/90
f 20/32/32 123/79/75 42/29/29
f 2/31/31 89/28/28 116/118/74
f 42/29/29 89/28/28 2/31/31
f 19/30/30 42/29/29 123/79/75
f 39/24/24 110/74/71 21/77/73
f 87/14/14 39/24/24 21/77/73
f 23/16/16 38/25/25 117/58/57
f 37/119/111 36/120/112 34/121/113
f 58/122/114 36/120/112 51/123/115
f 57/68/65 119/86/82 32/124/116
f 57/68/65 102/85/81 83/42/42
f 92/22/22 32/124/116 31/7/7
f 112/21/21 91/70/67 26/125/117
f 80/100/94 112/126/21 26/127/117
f 121/91/87 30/90/86 115/20/20
f 121/91/87 115/20/20 8/19/19
f 112/126/21 80/100/94 111/53/52
f 115/20/20 30/90/86 29/71/68
f 28/128/106 75/50/49 114/129/118
f 27/23/23 65/130/119 92/22/22
f 26/125/117 91/70/67 118/131/54
f 69/6/6 70/5/5 90/18/18
f 43/95/90 2/31/31 116/118/74
f 45/117/110 47/115/108 6/92/88
f 45/117/110 105/15/15 47/115/108
f 18/13/13 103/116/109 49/11/11
f 58/132/114 56/56/55 118/55/54
f 61/49/48 101/104/98 82/87/83
f 33/57/56 13/67/64 65/130/119
f 9/2/2 24/1/1 121/91/87
f 76/93/89 62/102/96 7/106/100
f 75/50/49 76/93/89 77/133/120
f 55/134/121 114/129/118 77/133/120
f 6/92/88 122/46/45 5/135/122
f 26/127/117 33/57/56 80/100/94
f 81/9/9 120/97/91 31/7/7
f 120/97/91 27/23/23 31/7/7
f 12/88/84 64/8/8 59/107/101
f 40/62/61 89/76/28 41/80/76
f 1/3/3 108/44/44 21/77/73
f 113/60/59 30/90/86 78/61/60
f 114/129/118 75/50/49 77/133/120
f 68/52/51 9/136/2 121/137/87
f 97/138/103 96/39/39 94/38/38
f 103/116/109 18/13/13 45/117/110
f 94/110/38 93/139/107 114/129/118
f 75/50/49 28/128/106 122/94/45
f 5/135/122 28/113/106 103/116/109
f 118/131/54 91/70/67 37/119/111
f 26/127/117 118/55/54 33/57/56
f 25/73/70 36/120/112 37/119/111
f 69/6/6 90/18/18 109/27/27
f 40/62/61 41/80/76 88/63/62
f 43/95/90 20/32/32 2/31/31
f 68/52/51 20/32/32 43/95/90
f 101/104/98 61/49/48 44/103/97
f 38/25/25 95/59/58 117/58/57
f 119/86/82 59/107/101 64/8/8
f 60/105/99 62/102/96 82/87/83
f 12/88/84 10/43/43 64/8/8
f 33/57/56 99/101/95 80/100/94
f 67/98/92 68/52/51 79/54/53
f 121/137/87 8/140/19 68/52/51
f 73/4/4 62/102/96 76/93/89
f 74/48/47 73/4/4 69/6/6
f 77/133/120 54/108/102 55/134/121
f 76/93/89 75/50/49 98/51/50
f 111/53/52 68/52/51 8/140/19
f 100/89/85 12/88/84 59/107/101
f 18/13/13 85/81/77 45/117/110
f 48/10/10 38/25/25 85/81/77
f 19/30/30 74/48/47 109/27/27
f 107/33/33 20/32/32 3/34/34
f 37/119/111 91/70/67 25/73/70
f 110/74/71 1/3/3 21/77/73
f 19/30/30 44/103/97 74/48/47
f 44/103/97 61/49/48 74/48/47
f 88/63/62 106/141/123 87/14/14
f 47/115/108 88/63/62 86/75/72
f 47/115/108 106/141/123 88/63/62
f 36/120/112 96/39/39 51/123/115
f 15/12/12 96/39/39 35/82/78
f 13/67/64 33/57/56 56/56/55
f 60/105/99 119/86/82 83/42/42
f 99/101/95 33/57/56 65/130/119
f 24/1/1 78/61/60 121/91/87
f 98/51/50 70/5/5 73/4/4
f 77/133/120 76/93/89 7/106/100
f 77/133/120 53/41/41 54/108/102
f 60/105/99 53/41/41 7/106/100
f 7/106/100 53/41/41 77/133/120
f 61/49/48 62/102/96 73/4/4
f 72/45/17 71/47/46 90/64/18
f 46/65/63 90/64/18 71/47/46
f 108/96/44 9/136/2 68/52/51
f 66/36/36 68/52/51 67/98/92
f 65/130/119 27/23/23 99/101/95
f 99/101/95 79/54/53 80/100/94
f 10/43/43 63/35/35 11/99/93
f 11/99/93 81/9/9 10/43/43
f 53/41/41 60/105/99 83/42/42
f 58/132/114 102/85/81 56/56/55
f 102/85/81 58/132/114 84/84/80
f 54/108/102 14/40/40 94/110/38
f 54/108/102 94/110/38 55/134/121
f 97/138/103 58/122/114 51/123/115
f 97/138/103 51/123/115 96/39/39
f 95/59/58 38/25/25 17/112/105
f 16/111/104 17/112/105 38/25/25
f 35/82/78 25/73/70 16/111/104
f 50/72/69 95/59/58 17/112/105
f 49/11/11 103/116/109 28/113/106
f 49/11/11 93/114/107 52/37/37
f 49/11/11 52/37/37 15/12/12
f 47/115/108 71/47/46 6/92/88
f 5/135/122 103/116/109 6/92/88
f 105/15/15 85/81/77 38/25/25
f 47/115/108 105/15/15 106/141/123
f 19/30/30 123/79/75 44/103/97
f 66/36/36 11/99/93 3/34/34
f 44/103/97 63/35/35 10/43/43
f 108/44/44 116/78/74 21/77/73
f 22/66/26 41/80/76 89/76/28
f 42/29/29 109/27/27 22/26/26
f 40/62/61 87/14/14 21/77/73
f 117/58/57 78/61/60 110/74/71
f 23/16/16 110/74/71 39/24/24
f 96/39/39 36/120/112 35/82/78
f 36/120/112 25/73/70 35/82/78
f 118/131/54 34/121/113 58/122/114
f 36/120/112 58/122/114 34/121/113
f 34/121/113 118/131/54 37/119/111
f 92/22/22 57/68/65 32/124/116
f 32/124/116 119/86/82 64/8/8
f 91/70/67 112/21/21 115/20/20
f 112/126/21 111/53/52 8/140/19
f 29/71/68 30/90/86 113/60/59
f 114/129/118 93/139/107 28/128/106
f 55/134/121 94/110/38 114/129/118
f 110/74/71 23/16/16 117/58/57
f 22/66/26 86/75/72 41/80/76
f 107/33/33 63/35/35 44/103/97
f 107/33/33 44/103/97 123/79/75
f 87/14/14 106/141/123 105/15/15
f 86/75/72 46/65/63 47/115/108
f 48/10/10 104/83/79 16/111/104
f 4/69/66 113/60/59 50/72/69
f 96/39/39 15/12/12 52/37/37
f 94/110/38 14/40/40 84/84/80
f 57/68/65 56/56/55 102/85/81
f 59/107/101 60/105/99 100/89/85
f 82/87/83 100/89/85 60/105/99
f 81/9/9 11/99/93 120/97/91
f 32/124/116 64/8/8 31/7/7
f 66/36/36 67/98/92 11/99/93
f 79/54/53 27/23/23 67/98/92
f 72/17/17 70/5/5 122/94/45
f 5/135/122 122/46/45 28/113/106
f 97/109/103 84/84/80 58/132/114
f 109/27/27 74/48/47 69/6/6
f 91/70/67 4/69/66 50/72/69
f 65/130/119 13/67/64 92/22/22
f 52/37/37 93/114/107 94/38/38
